<?xml version="1.0" encoding="UTF-8" standalone="no"?><!DOCTYPE svg PUBLIC "-//W3C//DTD SVG 1.1//EN" "http://www.w3.org/Graphics/SVG/1.1/DTD/svg11.dtd"><svg width="198px" height="398px" version="1.1" xmlns="http://www.w3.org/2000/svg" xmlns:xlink="http://www.w3.org/1999/xlink" xml:space="preserve" xmlns:serif="http://www.serif.com/" style="fill-rule:evenodd;clip-rule:evenodd;stroke-linejoin:round;stroke-miterlimit:2;"><path d="M79.8,159l21.6,0c10.8,0 19.8,-9 19.8,-20.4c0,-10.8 -9,-20.4 -19.8,-20.4l-21.6,0c-12,0 -20.4,-2.4 -28.8,-10.8c-7.8,-8.4 -10.8,-16.2 -10.8,-27.6c0,-11.4 3,-19.8 10.8,-28.2c8.4,-8.4 16.8,-11.4 28.8,-11.4l78.6,0l0,257.4c0,17.4 -4.2,28.8 -15.6,42c-7.8,9.6 -25.2,18 -43.8,18l-49.8,0l0,-160.2c0,-10.2 -9,-19.2 -19.8,-19.2c-10.8,0 -19.8,9 -19.8,19.2l0,180c0,4.8 1.2,8.4 4.2,12.6c4.2,4.8 9,7.2 15.6,7.2l69.6,0c31.8,0 61.2,-15.6 75.6,-32.4c12,-13.2 23.4,-39 23.4,-67.2l0,-277.2c0,-10.8 -8.4,-20.4 -19.2,-20.4l-99,0c-24,0 -40.2,6 -57,22.8c-16.8,17.4 -22.8,33.6 -22.8,57c0,23.4 4.8,39.6 22.2,56.4c16.8,17.4 33.6,22.8 57.6,22.8Z" style="fill:#38dabb;fill-rule:nonzero;"/></svg>